HIERARCHY
ROOT hip
{
  OFFSET 0 0 0
  CHANNELS 6 Xposition Yposition Zposition Zrotation Yrotation Xrotation
  JOINT abdomen
  {
    OFFSET 0 20.6881 -0.73152
    CHANNELS 3 Zrotation Xrotation Yrotation
    JOINT chest
    {
      OFFSET 0 11.7043 -0.48768
      CHANNELS 3 Zrotation Xrotation Yrotation
      JOINT neck
      {
        OFFSET 0 22.1894 -2.19456
        CHANNELS 3 Zrotation Xrotation Yrotation
        JOINT head
        {
          OFFSET -0.24384 7.07133 1.2192
          CHANNELS 3 Zrotation Xrotation Yrotation
          JOINT leftEye
          {
            OFFSET 4.14528 8.04674 8.04672
            CHANNELS 3 Zrotation Xrotation Yrotation
            End Site
            {
              OFFSET 1 0 0
            }
          }
          JOINT rightEye
          {
            OFFSET -3.6576 8.04674 8.04672
            CHANNELS 3 Zrotation Xrotation Yrotation
            End Site
            {
              OFFSET 1 0 0
            }
          }
        }
      }
      JOINT rCollar
      {
        OFFSET -2.68224 19.2634 -4.8768
        CHANNELS 3 Zrotation Xrotation Yrotation
        JOINT rShldr
        {
          OFFSET -8.77824 -1.95073 1.46304
          CHANNELS 3 Zrotation Xrotation Yrotation
          JOINT rForeArm
          {
            OFFSET -28.1742 -1.7115 0.48768
            CHANNELS 3 Zrotation Xrotation Yrotation
            JOINT rHand
            {
              OFFSET -22.5879 0.773209 7.07136
              CHANNELS 3 Zrotation Xrotation Yrotation
              JOINT rThumb1
              {
                OFFSET -1.2192 -0.487915 3.41376
                CHANNELS 3 Zrotation Xrotation Yrotation
                JOINT rThumb2
                {
                  OFFSET -3.37035 -0.52449 3.41376
                  CHANNELS 3 Zrotation Xrotation Yrotation
                  End Site
                  {
                    OFFSET -1.78271 -1.18214 1.43049
                  }
                }
              }
              JOINT rIndex1
              {
                OFFSET -7.75947 0.938293 5.60832
                CHANNELS 3 Zrotation Xrotation Yrotation
                JOINT rIndex2
                {
                  OFFSET -2.54057 -0.884171 1.56538
                  CHANNELS 3 Zrotation Xrotation Yrotation
                  End Site
                  {
                    OFFSET -1.62519 -0.234802 1.16502
                  }
                }
              }
              JOINT rMid1
              {
                OFFSET -8.24714 1.18213 3.41376
                CHANNELS 3 Zrotation Xrotation Yrotation
                JOINT rMid2
                {
                  OFFSET -3.10165 -0.590103 1.0647
                  CHANNELS 3 Zrotation Xrotation Yrotation
                  End Site
                  {
                    OFFSET -2.48547 -0.328903 0.83742
                  }
                }
              }
              JOINT rRing1
              {
                OFFSET -8.82822 0.546677 1.51678
                CHANNELS 3 Zrotation Xrotation Yrotation
                JOINT rRing2
                {
                  OFFSET -2.60934 -0.819778 -0.0198488
                  CHANNELS 3 Zrotation Xrotation Yrotation
                  End Site
                  {
                    OFFSET -2.33842 -0.294052 0.168128
                  }
                }
              }
              JOINT rPinky1
              {
                OFFSET -8.27202 -0.0477905 -0.4584
                CHANNELS 3 Zrotation Xrotation Yrotation
                JOINT rPinky2
                {
                  OFFSET -1.82734 -0.647385 -0.700984
                  CHANNELS 3 Zrotation Xrotation Yrotation
                  End Site
                  {
                    OFFSET -1.69225 -0.51767 -0.607171
                  }
                }
              }
            }
          }
        }
      }
      JOINT lCollar
      {
        OFFSET 2.68224 19.2634 -4.8768
        CHANNELS 3 Zrotation Xrotation Yrotation
        JOINT lShldr
        {
          OFFSET 8.77824 -1.95073 1.46304
          CHANNELS 3 Zrotation Xrotation Yrotation
          JOINT lForeArm
          {
            OFFSET 28.1742 -1.7115 0.48768
            CHANNELS 3 Zrotation Xrotation Yrotation
            JOINT lHand
            {
              OFFSET 22.5879 0.773209 7.07136
              CHANNELS 3 Zrotation Xrotation Yrotation
              JOINT lThumb1
              {
                OFFSET 1.2192 -0.487915 3.41376
                CHANNELS 3 Zrotation Xrotation Yrotation
                JOINT lThumb2
                {
                  OFFSET 3.37035 -0.52449 3.41376
                  CHANNELS 3 Zrotation Xrotation Yrotation
                  End Site
                  {
                    OFFSET 1.78271 -1.18214 1.43049
                  }
                }
              }
              JOINT lIndex1
              {
                OFFSET 7.75947 0.938293 5.60832
                CHANNELS 3 Zrotation Xrotation Yrotation
                JOINT lIndex2
                {
                  OFFSET 2.54057 -0.884171 1.56538
                  CHANNELS 3 Zrotation Xrotation Yrotation
                  End Site
                  {
                    OFFSET 1.62519 -0.234802 1.16502
                  }
                }
              }
              JOINT lMid1
              {
                OFFSET 8.24714 1.18213 3.41376
                CHANNELS 3 Zrotation Xrotation Yrotation
                JOINT lMid2
                {
                  OFFSET 3.10165 -0.590103 1.0647
                  CHANNELS 3 Zrotation Xrotation Yrotation
                  End Site
                  {
                    OFFSET 2.48547 -0.328903 0.83742
                  }
                }
              }
              JOINT lRing1
              {
                OFFSET 8.82822 0.546677 1.51678
                CHANNELS 3 Zrotation Xrotation Yrotation
                JOINT lRing2
                {
                  OFFSET 2.60934 -0.819778 -0.0198488
                  CHANNELS 3 Zrotation Xrotation Yrotation
                  End Site
                  {
                    OFFSET 2.33842 -0.294052 0.168128
                  }
                }
              }
              JOINT lPinky1
              {
                OFFSET 8.27202 -0.0477905 -0.4584
                CHANNELS 3 Zrotation Xrotation Yrotation
                JOINT lPinky2
                {
                  OFFSET 1.82734 -0.647385 -0.700984
                  CHANNELS 3 Zrotation Xrotation Yrotation
                  End Site
                  {
                    OFFSET 1.69225 -0.51767 -0.607171
                  }
                }
              }
            }
          }
        }
      }
    }
  }
  JOINT rButtock
  {
    OFFSET -8.77824 4.35084 1.2192
    CHANNELS 3 Zrotation Xrotation Yrotation
    JOINT rThigh
    {
      OFFSET 0 -1.70687 -2.19456
      CHANNELS 3 Zrotation Xrotation Yrotation
      JOINT rShin
      {
        OFFSET 0 -36.8199 0.73152
        CHANNELS 3 Zrotation Xrotation Yrotation
        JOINT rFoot
        {
          OFFSET 0.73152 -45.1104 -5.12064
          CHANNELS 3 Zrotation Xrotation Yrotation
          End Site
          {
            OFFSET -1.1221 -3.69964 12.103
          }
        }
      }
    }
  }
  JOINT lButtock
  {
    OFFSET 8.77824 4.35084 1.2192
    CHANNELS 3 Zrotation Xrotation Yrotation
    JOINT lThigh
    {
      OFFSET 0 -1.70687 -2.19456
      CHANNELS 3 Zrotation Xrotation Yrotation
      JOINT lShin
      {
        OFFSET 0 -36.8199 0.73152
        CHANNELS 3 Zrotation Xrotation Yrotation
        JOINT lFoot
        {
          OFFSET -0.73152 -45.1104 -5.12064
          CHANNELS 3 Zrotation Xrotation Yrotation
          End Site
          {
            OFFSET 1.1221 -3.69964 12.103
          }
        }
      }
    }
  }
}
MOTION
Frames:	6
Frame Time:	0.00833333
1.41796 66.9367 84.5751 83.5654 34.4355 76.2947 -5.95868 -32.0107 -10.1873 -4.41017 -0.890012 -1.67764 0.818433 17.6078 -10.1869 -14.4449 23.5266 -14.1144 -0.0 0.0 0.0 -0.0 0.0 0.0 -5.48629e-14 1.70414e-13 -5.72694e-14 -27.5968 -16.8124 -33.048 17.2863 -9.93926 -32.4384 -0.0197028 -4.0039 -0.563638 -2.07837e-10 9.24177e-13 -7.99956e-10 -3.58322e-10 -5.81246e-12 -1.38712e-09 -2.0784e-10 9.39651e-13 -7.99962e-10 7.73091 5.47488 0.417314 -2.07841e-10 9.31144e-13 -7.9995e-10 2.90554 0.965183 0.102902 -2.07831e-10 9.27564e-13 -7.99949e-10 10.2786 0.731801 0.0259123 -2.07839e-10 9.29409e-13 -7.99937e-10 2.22167 -0.733487 -0.20892 -5.4837e-14 1.70452e-13 -5.73389e-14 10.6656 -15.5363 -4.1677 11.3961 -5.03403 -20.447 2.32055 -39.0288 6.54161 -1.15454e-09 8.18182e-11 -4.63448e-10 -1.98309e-09 1.52865e-10 -8.31258e-10 -1.15456e-09 8.1818e-11 -4.63423e-10 -7.73091 5.47488 -0.417314 -1.15454e-09 8.18177e-11 -4.63446e-10 -2.90554 0.965183 -0.102902 -1.15455e-09 8.18181e-11 -4.63443e-10 -10.2786 0.731801 -0.0259123 -1.15454e-09 8.18185e-11 -4.6345e-10 -2.22167 -0.733487 0.20892 -2.03217e-16 0.0 -3.88251e-19 17.2942 -37.4729 4.08353 -0.685514 47.4475 0.00106355 -3.8168 12.5524 21.4645 2.03217e-16 0.0 3.88251e-19 5.56881 -13.3264 21.0307 170.643 82.5966 -171.09 1.09852 8.69933 -2.10908
1.48874 67.0051 84.0759 83.6471 34.2546 76.007 -6.34915 -32.0733 -10.2775 -4.35245 -0.913739 -1.66596 0.769709 17.7644 -10.2325 -14.4746 23.3815 -14.192 -0.0 0.0 0.0 -0.0 0.0 0.0 1.81267e-13 3.81486e-14 -2.60756e-13 -27.685 -16.7703 -33.1851 17.2782 -9.9311 -32.4203 -0.0207647 -4.11024 -0.578659 -2.88104e-10 6.17861e-10 -1.31986e-09 -4.98462e-10 1.06074e-09 -2.28766e-09 -2.88109e-10 6.17877e-10 -1.31987e-09 7.73091 5.47488 0.417314 -2.88109e-10 6.1787e-10 -1.31985e-09 2.90554 0.965183 0.102902 -2.88097e-10 6.17866e-10 -1.31985e-09 10.2786 0.731801 0.0259123 -2.88105e-10 6.17868e-10 -1.31984e-09 2.22167 -0.733487 -0.20892 1.81328e-13 3.81853e-14 -2.60805e-13 10.6598 -15.3763 -4.27085 11.3907 -5.03041 -20.4367 2.32652 -39.0691 6.55106 -1.97937e-09 -5.17158e-12 -2.00209e-09 -3.3669e-09 9.37627e-12 -3.50614e-09 -1.97939e-09 -5.17198e-12 -2.00207e-09 -7.73091 5.47488 -0.417314 -1.97937e-09 -5.17198e-12 -2.00209e-09 -2.90554 0.965183 -0.102902 -1.97938e-09 -5.17148e-12 -2.00209e-09 -10.2786 0.731801 -0.0259123 -1.97937e-09 -5.17118e-12 -2.0021e-09 -2.22167 -0.733487 0.20892 -2.03217e-16 0.0 -3.88251e-19 17.0169 -37.4175 4.23778 -0.682624 47.3531 -0.00436389 -3.60003 11.9331 21.6424 2.03217e-16 0.0 3.88251e-19 5.05226 -13.2748 20.8079 170.413 82.793 -170.858 1.0958 8.80886 -2.0318
1.42012 66.681 83.9313 83.2842 37.1335 75.7285 -5.76589 -32.087 -10.2515 -4.49803 -0.95094 -1.70784 0.66681 17.8734 -10.2504 -14.4615 23.3016 -14.2211 -0.0 0.0 0.0 -0.0 0.0 0.0 4.35289e-13 -8.04998e-14 -5.20834e-13 -27.8292 -16.8057 -33.2792 17.2621 -9.9147 -32.385 -0.021571 -4.18871 -0.589747 -1.23916e-09 2.3017e-09 -2.03799e-09 -2.14349e-09 3.96947e-09 -3.53315e-09 -1.23916e-09 2.30171e-09 -2.038e-09 7.73091 5.47488 0.417314 -1.23917e-09 2.30171e-09 -2.03799e-09 2.90554 0.965183 0.102902 -1.23915e-09 2.3017e-09 -2.03799e-09 10.2786 0.731801 0.0259123 -1.23916e-09 2.30171e-09 -2.03798e-09 2.22167 -0.733487 -0.20892 4.35338e-13 -8.04657e-14 -5.20904e-13 10.5641 -15.4249 -4.34167 11.3932 -5.03213 -20.4416 2.31518 -38.9925 6.53309 -3.57582e-09 5.54976e-11 -2.86847e-09 -6.10322e-09 1.28036e-10 -5.04169e-09 -3.57583e-09 5.54974e-11 -2.86845e-09 -7.73091 5.47488 -0.417314 -3.57582e-09 5.54978e-11 -2.86847e-09 -2.90554 0.965183 -0.102902 -3.57583e-09 5.54983e-11 -2.86847e-09 -10.2786 0.731801 -0.0259123 -3.57582e-09 5.54991e-11 -2.86848e-09 -2.22167 -0.733487 0.20892 -2.03217e-16 0.0 -3.88251e-19 17.4437 -37.1587 4.33813 -0.671402 47.0078 -0.0189799 -3.39185 11.3441 21.8201 2.03217e-16 0.0 3.88251e-19 5.50684 -13.1517 20.644 170.377 82.8238 -170.822 1.08914 8.76772 -2.09546
1.29519 66.6703 83.3623 83.7967 36.8937 76.611 -4.45711 -32.0708 -10.1539 -4.79786 -0.99599 -1.79324 0.522436 17.9496 -10.2459 -14.4339 23.2534 -14.2101 -0.0 0.0 0.0 -0.0 0.0 0.0 7.31319e-13 -2.08142e-13 -8.41782e-13 -28.0081 -16.8881 -33.3439 17.2457 -9.89802 -32.3491 -0.0223807 -4.26585 -0.600649 -2.7574e-09 4.80889e-09 -2.90803e-09 -4.76914e-09 8.30086e-09 -5.04273e-09 -2.7574e-09 4.8089e-09 -2.90804e-09 7.73091 5.47488 0.417314 -2.75741e-09 4.8089e-09 -2.90803e-09 2.90554 0.965183 0.102902 -2.75739e-09 4.8089e-09 -2.90803e-09 10.2786 0.731801 0.0259123 -2.7574e-09 4.8089e-09 -2.90802e-09 2.22167 -0.733487 -0.20892 7.31327e-13 -2.08113e-13 -8.41897e-13 10.3989 -15.6156 -4.39239 11.4003 -5.03688 -20.4551 2.29186 -38.8336 6.49597 -5.77479e-09 2.01676e-10 -3.51612e-09 -9.88704e-09 3.99104e-10 -6.21586e-09 -5.7748e-09 2.01677e-10 -3.51611e-09 -7.73091 5.47488 -0.417314 -5.77479e-09 2.01678e-10 -3.51612e-09 -2.90554 0.965183 -0.102902 -5.77479e-09 2.01678e-10 -3.51612e-09 -10.2786 0.731801 -0.0259123 -5.77479e-09 2.0168e-10 -3.51613e-09 -2.22167 -0.733487 0.20892 -2.03217e-16 0.0 -3.88251e-19 18.3875 -36.7595 4.38028 -0.654695 46.4845 -0.0397781 -3.19582 10.8045 21.9673 2.03217e-16 0.0 3.88251e-19 6.68377 -12.9842 20.5066 170.473 82.745 -170.921 1.08043 8.63781 -2.27441
1.17368 66.4699 83.1432 84.1236 38.8724 76.968 -3.14391 -32.0666 -10.0662 -5.10459 -1.04263 -1.88141 0.3969 18.031 -10.2477 -14.3875 23.2209 -14.2104 -0.0 0.0 0.0 -0.0 0.0 0.0 9.79746e-13 -3.13622e-13 -1.11552e-12 -28.1726 -16.963 -33.4016 17.2328 -9.885 -32.3211 -0.023243 -4.3471 -0.612133 -4.17289e-09 7.12307e-09 -3.61561e-09 -7.21703e-09 1.22993e-08 -6.27068e-09 -4.17289e-09 7.12308e-09 -3.61562e-09 7.73091 5.47488 0.417314 -4.17289e-09 7.12308e-09 -3.61561e-09 2.90554 0.965183 0.102902 -4.17288e-09 7.12308e-09 -3.61561e-09 10.2786 0.731801 0.0259123 -4.17289e-09 7.12308e-09 -3.6156e-09 2.22167 -0.733487 -0.20892 9.79704e-13 -3.13594e-13 -1.11568e-12 10.2353 -15.8002 -4.44469 11.4116 -5.0445 -20.4768 2.27069 -38.688 6.46211 -7.71544e-09 3.52186e-10 -3.90841e-09 -1.32311e-08 6.75163e-10 -6.94299e-09 -7.71544e-09 3.52187e-10 -3.9084e-09 -7.73091 5.47488 -0.417314 -7.71544e-09 3.52188e-10 -3.90841e-09 -2.90554 0.965183 -0.102902 -7.71544e-09 3.52189e-10 -3.90841e-09 -10.2786 0.731801 -0.0259123 -7.71544e-09 3.52191e-10 -3.90842e-09 -2.22167 -0.733487 0.20892 -2.03217e-16 0.0 -3.88251e-19 19.3492 -36.4046 4.42997 -0.64014 46.0165 -0.0576727 -3.02289 10.3367 22.103 2.03217e-16 0.0 3.88251e-19 7.90304 -12.823 20.4061 170.587 82.6494 -171.038 1.07218 8.4984 -2.46486
1.24582 66.8396 82.4606 84.2153 37.024 76.6206 -2.54717 -32.116 -10.0699 -5.27069 -1.08463 -1.93162 0.350721 18.1556 -10.285 -14.3183 23.1882 -14.2734 -0.0 0.0 0.0 -0.0 0.0 0.0 1.09095e-12 -3.65782e-13 -1.23396e-12 -28.2737 -16.9757 -33.4746 17.2275 -9.87955 -32.3093 -0.0242162 -4.4379 -0.624968 -4.81568e-09 8.22787e-09 -3.84637e-09 -8.32879e-09 1.42091e-08 -6.6713e-09 -4.81568e-09 8.22788e-09 -3.84638e-09 7.73091 5.47488 0.417314 -4.81569e-09 8.22788e-09 -3.84637e-09 2.90554 0.965183 0.102902 -4.81568e-09 8.22788e-09 -3.84637e-09 10.2786 0.731801 0.0259123 -4.81568e-09 8.22789e-09 -3.84637e-09 2.22167 -0.733487 -0.20892 1.09088e-12 -3.65746e-13 -1.23415e-12 10.1447 -15.8304 -4.51999 11.427 -5.05485 -20.5062 2.26532 -38.651 6.45354 -8.53694e-09 4.25848e-10 -4.00867e-09 -1.46481e-08 8.08796e-10 -7.13746e-09 -8.53693e-09 4.25848e-10 -4.00867e-09 -7.73091 5.47488 -0.417314 -8.53693e-09 4.2585e-10 -4.00868e-09 -2.90554 0.965183 -0.102902 -8.53694e-09 4.2585e-10 -4.00868e-09 -10.2786 0.731801 -0.0259123 -8.53693e-09 4.25854e-10 -4.00869e-09 -2.22167 -0.733487 0.20892 -2.03217e-16 0.0 -3.88251e-19 19.8291 -36.2785 4.55208 -0.634599 45.8372 -0.0641319 -2.88349 9.96315 22.2456 2.03217e-16 0.0 3.88251e-19 8.48416 -12.7188 20.353 170.612 82.6301 -171.066 1.06859 8.42884 -2.56325
